HIERARCHY
ROOT Hips
{
	OFFSET 0.000000 0.000000 0.000000
	CHANNELS 6 Xposition Yposition Zposition Xrotation Yrotation Zrotation
	JOINT LeftUpLeg_virtual
	{
		OFFSET 0.000000 0.000000 0.000000
		CHANNELS 3 Xrotation Yrotation Zrotation
		JOINT LeftUpLeg
		{
			OFFSET 11.394100 -6.187798 -0.413800
			CHANNELS 3 Xrotation Yrotation Zrotation
			JOINT LeftLeg
			{
				OFFSET 0.430247 -32.302673 3.732800
				CHANNELS 3 Xrotation Yrotation Zrotation
				JOINT LeftFoot
				{
					OFFSET -0.430247 -48.264931 -6.423300
					CHANNELS 3 Xrotation Yrotation Zrotation
					JOINT LeftToeBase
					{
						OFFSET 4.230900 -16.068199 23.438400
						CHANNELS 3 Xrotation Yrotation Zrotation
						JOINT LeftToe_End
						{
							OFFSET 4.510700 0.695400 19.974600
							CHANNELS 3 Xrotation Yrotation Zrotation
							End Site
							{
								OFFSET 0 0 0
							}
						}
					}
				}
			}
		}
	}
	JOINT RightUpLeg_virtual
	{
		OFFSET 0.000000 0.000000 0.000000
		CHANNELS 3 Xrotation Yrotation Zrotation
		JOINT RightUpLeg
		{
			OFFSET -11.333700 -6.187798 -0.413800
			CHANNELS 3 Xrotation Yrotation Zrotation
			JOINT RightLeg
			{
				OFFSET -0.430392 -32.302628 3.733000
				CHANNELS 3 Xrotation Yrotation Zrotation
				JOINT RightFoot
				{
					OFFSET 0.430392 -48.264973 -6.423500
					CHANNELS 3 Xrotation Yrotation Zrotation
					JOINT RightToeBase
					{
						OFFSET -4.230900 -16.068199 23.438400
						CHANNELS 3 Xrotation Yrotation Zrotation
						JOINT RightToe_End
						{
							OFFSET -4.510700 0.695400 19.974600
							CHANNELS 3 Xrotation Yrotation Zrotation
							End Site
							{
								OFFSET 0 0 0
							}
						}
					}
				}
			}
		}
	}
	JOINT Spine_virtual
	{
		OFFSET 0.000000 0.000000 0.000000
		CHANNELS 3 Xrotation Yrotation Zrotation
		JOINT Spine
		{
			OFFSET -0.002400 12.777504 0.315300
			CHANNELS 3 Xrotation Yrotation Zrotation
			JOINT Spine1
			{
				OFFSET -0.002067 5.816869 0.032633
				CHANNELS 3 Xrotation Yrotation Zrotation
				JOINT Spine1_split
				{
					OFFSET -0.002067 5.816869 0.032633
					CHANNELS 3 Xrotation Yrotation Zrotation
					JOINT Spine2
					{
						OFFSET -0.002067 5.816869 0.032633
						CHANNELS 3 Xrotation Yrotation Zrotation
						JOINT Neck_virtual
						{
							OFFSET 0.000000 0.000000 0.000000
							CHANNELS 3 Xrotation Yrotation Zrotation
							JOINT Neck
							{
								OFFSET -0.003700 21.199493 -0.826900
								CHANNELS 3 Xrotation Yrotation Zrotation
								JOINT Head
								{
									OFFSET 0.000000 20.442200 4.834800
									CHANNELS 3 Xrotation Yrotation Zrotation
									JOINT HeadTop_End
									{
										OFFSET 0.000000 34.668396 4.968400
										CHANNELS 3 Xrotation Yrotation Zrotation
										End Site
										{
											OFFSET 0 0 0
										}
									}
								}
							}
						}
						JOINT LeftShoulder_virtual
						{
							OFFSET 0.000000 0.000000 0.000000
							CHANNELS 3 Xrotation Yrotation Zrotation
							JOINT LeftShoulder
							{
								OFFSET 3.288150 8.794197 -1.372250
								CHANNELS 3 Xrotation Yrotation Zrotation
								JOINT LeftShoulder_split
								{
									OFFSET 3.288150 8.794197 -1.372250
									CHANNELS 3 Xrotation Yrotation Zrotation
									JOINT LeftArm
									{
										OFFSET 11.953299 -2.279007 -0.146200
										CHANNELS 3 Xrotation Yrotation Zrotation
										JOINT LeftForeArm
										{
											OFFSET 18.448900 0.000000 0.000000
											CHANNELS 3 Xrotation Yrotation Zrotation
											JOINT LeftHand
											{
												OFFSET 29.527798 0.000000 0.000000
												CHANNELS 3 Xrotation Yrotation Zrotation
												End Site
												{
													OFFSET 0 0 0
												}
											}
										}
									}
								}
							}
						}
						JOINT RightShoulder_virtual
						{
							OFFSET 0.000000 0.000000 0.000000
							CHANNELS 3 Xrotation Yrotation Zrotation
							JOINT RightShoulder
							{
								OFFSET -3.249400 8.794197 -1.372250
								CHANNELS 3 Xrotation Yrotation Zrotation
								JOINT RightShoulder_split
								{
									OFFSET -3.249400 8.794197 -1.372250
									CHANNELS 3 Xrotation Yrotation Zrotation
									JOINT RightArm
									{
										OFFSET -11.953299 -2.279007 -0.146200
										CHANNELS 3 Xrotation Yrotation Zrotation
										JOINT RightForeArm
										{
											OFFSET -18.448900 0.000000 0.000000
											CHANNELS 3 Xrotation Yrotation Zrotation
											JOINT RightHand
											{
												OFFSET -29.527802 0.000000 0.000000
												CHANNELS 3 Xrotation Yrotation Zrotation
												End Site
												{
													OFFSET 0 0 0
												}
											}
										}
									}
								}
							}
						}
					}
				}
			}
		}
	}
}
MOTION
Frames: 4
Frame Time: 0.03333333
0.749681 98.830536 0.916626 0.000000 0.000000 0.000000 -1.575202 6.769289 1.027410 -6.934362 7.279456 6.829123 20.317257 -0.677277 -2.056744 -14.916824 0.760770 -5.229800 -0.566553 0.174761 0.720681 0.000000 0.000000 0.000000 -1.727039 5.919966 0.479344 -5.365212 -2.933985 -7.354391 20.877026 -7.530538 3.183965 -7.536493 -19.414382 3.437363 -4.587192 -0.548777 -1.461721 0.000000 0.000000 0.000000 -0.813506 5.060493 0.018788 -1.585130 -1.835816 -2.504511 0.686972 -0.253659 1.971165 1.767817 -1.441161 -0.094090 0.000000 0.000000 0.000000 0.204738 -0.122067 1.414927 7.418187 1.688383 -0.933712 -2.952349 -0.139657 2.517953 0.000000 0.000000 0.000000 0.803149 0.302460 1.075787 6.742323 -24.903589 -5.943692 -0.443515 -2.402954 -1.798531 6.834648 5.118605 -79.740348 -2.271576 -16.407619 1.739119 0.000000 0.000000 0.000000 0.607106 0.226934 1.988425 1.970468 -6.036808 9.378153 0.754082 6.295825 -0.666732 7.023881 18.128295 72.870120 1.455447 15.111401 -0.568546 0.000000 0.000000 0.000000 
0.613708 98.786827 0.785843 0.000000 0.000000 0.000000 -1.578911 6.892163 1.038963 -6.901151 7.454472 6.832803 20.352307 -0.744607 -2.097302 -14.997164 0.713452 -5.135569 -0.558279 0.167641 0.775492 0.000000 0.000000 0.000000 -1.719680 5.989008 0.485517 -5.408089 -2.983727 -7.313142 21.029338 -7.573042 3.198493 -7.621934 -19.384615 3.391717 -4.572352 -0.525468 -1.522669 0.000000 0.000000 0.000000 -0.833420 4.893507 0.148585 -1.608579 -1.838805 -2.556604 0.640360 -0.274585 1.934193 1.698924 -1.442867 -0.084898 0.000000 0.000000 0.000000 0.210958 -0.113155 1.378654 7.526329 1.710783 -1.074176 -2.922559 0.004668 2.386340 0.000000 0.000000 0.000000 0.779145 0.288588 1.047688 6.790391 -24.907482 -5.977607 -0.409797 -2.218996 -2.030107 6.736293 4.840769 -79.874992 -2.288939 -16.614645 1.715122 0.000000 0.000000 0.000000 0.578383 0.221732 2.002185 1.942916 -6.044126 9.364943 0.654572 6.604693 -0.721616 7.217618 18.000443 72.826373 1.508985 15.068243 -0.638682 0.000000 0.000000 0.000000 
0.477002 98.726593 0.735970 0.000000 0.000000 0.000000 -1.639182 6.981677 1.050251 -6.810180 7.604507 6.836320 20.298950 -0.811831 -2.098617 -15.045162 0.718590 -5.068218 -0.583002 0.159895 0.804678 0.000000 0.000000 0.000000 -1.699398 5.994857 0.500278 -5.445519 -2.941646 -7.313935 21.234372 -7.594311 3.232801 -7.491028 -19.315603 3.464993 -4.707093 -0.484379 -1.637653 0.000000 0.000000 0.000000 -0.889461 4.874335 0.278275 -1.602314 -1.811322 -2.602602 0.558166 -0.297133 1.887987 1.603952 -1.330843 0.003556 0.000000 0.000000 0.000000 0.201621 -0.110832 1.357220 7.545840 1.732719 -1.281936 -2.933460 -0.002630 2.288647 0.000000 0.000000 0.000000 0.731618 0.288011 1.036438 6.806665 -24.980056 -6.075311 -0.459312 -2.060011 -2.259327 6.869888 4.175548 -79.789143 -2.155036 -16.778826 1.705562 0.000000 0.000000 0.000000 0.548256 0.210799 1.988399 1.880488 -5.986557 9.420760 0.735587 6.792966 -0.839765 7.170554 18.004507 72.607670 1.508057 15.119587 -0.630741 0.000000 0.000000 0.000000 
0.365103 98.672882 0.790951 0.000000 0.000000 0.000000 -1.736705 6.980424 1.048402 -6.674079 7.698062 6.843838 20.165416 -0.834636 -2.053413 -15.034925 0.764613 -5.028273 -0.606481 0.154048 0.791436 0.000000 0.000000 0.000000 -1.658381 5.981581 0.510920 -5.448765 -2.841215 -7.330991 21.414200 -7.603396 3.268894 -7.224373 -19.212207 3.592743 -4.958823 -0.422778 -1.771369 0.000000 0.000000 0.000000 -0.935491 4.986565 0.371764 -1.548831 -1.774952 -2.635326 0.450777 -0.326702 1.840373 1.581010 -1.289094 0.167863 0.000000 0.000000 0.000000 0.174315 -0.115526 1.357633 7.499434 1.787073 -1.503049 -2.959956 -0.152927 2.245044 0.000000 0.000000 0.000000 0.652673 0.292142 1.048760 6.797380 -25.106455 -6.175560 -0.540526 -1.886746 -2.499372 7.177781 3.305923 -79.444567 -1.910590 -16.902481 1.672426 0.000000 0.000000 0.000000 0.499279 0.183732 1.951889 1.789009 -5.864540 9.575567 0.962818 6.779524 -0.900024 6.947166 18.108134 72.295667 1.453805 15.346069 -0.558449 0.000000 0.000000 0.000000 
